<svg version="1.1" id="Ebene_1" xmlns="http://www.w3.org/2000/svg" xmlns:xlink="http://www.w3.org/1999/xlink" x="0px" y="0px"
	 viewBox="0 0 24 24" style="enable-background:new 0 0 24 24;" xml:space="preserve">
<path fill="%color%" d="M18.8,3.8c-3.8-3.7-9.9-3.7-13.7,0c-3.8,3.7-3.8,9.8,0,13.5L12,24l6.8-6.7C22.6,13.5,22.6,7.5,18.8,3.8z M12,13.7
	c-0.8,0-1.6-0.3-2.1-0.9c-1.2-1.2-1.2-3.1,0-4.3C10.4,8,11.2,7.7,12,7.7c0.8,0,1.6,0.3,2.1,0.9c1.2,1.2,1.2,3.1,0,4.3
	C13.6,13.4,12.8,13.7,12,13.7z"/>
</svg>
